<?xml version="1.0" standalone="no"?>
<!DOCTYPE svg PUBLIC "-//W3C//DTD SVG 20010904//EN"
 "http://www.w3.org/TR/2001/REC-SVG-20010904/DTD/svg10.dtd">
<svg version="1.0" xmlns="http://www.w3.org/2000/svg"
 width="500.000000pt" height="500.000000pt" viewBox="0 0 500.000000 500.000000"
 preserveAspectRatio="xMidYMid meet">

<g transform="translate(0.000000,500.000000) scale(0.100000,-0.100000)"
fill="#000000" stroke="none">
<path d="M2350 4014 c-14 -2 -68 -11 -120 -20 -52 -8 -99 -20 -105 -26 -11
-12 -5 -11 155 17 75 14 132 16 265 12 227 -7 337 -33 600 -141 75 -31 252
-149 336 -223 213 -191 357 -410 442 -673 32 -98 54 -129 36 -51 -26 118 -112
303 -207 446 -84 127 -272 317 -393 397 -267 176 -522 257 -829 263 -85 2
-166 2 -180 -1z"/>
<path d="M2547 3540 c-50 -47 -73 -60 -99 -61 -23 -1 -26 -3 -10 -6 12 -2 22
-7 22 -9 0 -3 -65 -79 -144 -170 -238 -272 -366 -437 -366 -473 0 -9 11 3 24
26 45 79 318 404 470 561 l60 62 71 2 70 2 -64 3 -64 4 59 60 c76 77 56 76
-29 -1z"/>
<path d="M2865 3557 c-33 -13 -85 -37 -116 -55 -31 -18 -65 -32 -75 -33 -11 0
-13 -3 -7 -6 7 -2 -29 -39 -82 -83 -66 -55 -113 -86 -155 -101 -33 -12 -58
-24 -56 -27 3 -2 23 3 46 12 22 9 43 16 46 16 3 0 -22 -30 -55 -66 -34 -37
-61 -71 -61 -75 0 -14 16 -10 31 7 14 17 62 44 79 44 6 0 3 -11 -6 -25 -15
-23 -15 -25 0 -31 9 -3 46 8 82 25 78 37 78 36 64 12 -27 -52 2 -52 110 -2 79
37 66 41 -15 6 -81 -36 -103 -27 -32 13 31 18 57 37 57 43 0 13 -34 3 -76 -22
-17 -10 -33 -16 -36 -14 -3 3 -36 -8 -73 -25 -37 -17 -70 -28 -73 -26 -2 3 6
19 18 35 24 34 16 38 -35 17 -19 -8 -35 -11 -35 -7 0 4 26 33 58 63 46 44 79
63 172 102 63 27 140 61 171 77 44 22 65 27 93 22 20 -3 36 -9 36 -14 0 -5 7
-6 15 -3 25 10 6 24 -31 24 -41 0 -43 12 -8 35 38 25 64 53 64 70 0 21 -43 18
-115 -8z m99 -2 c0 -5 -22 -27 -50 -47 -46 -36 -53 -38 -119 -38 l-70 0 25 20
c14 11 59 33 100 50 74 29 116 35 114 15z m-219 -140 c-49 -24 -115 -53 -145
-65 -53 -21 -54 -21 -35 -1 11 10 45 40 75 65 54 45 56 46 125 45 l70 -1 -90
-43z m-69 -210 c-11 -8 -25 -15 -30 -15 -6 0 -2 7 8 15 11 8 25 15 30 15 6 0
2 -7 -8 -15z"/>
<path d="M2145 3463 c-22 -3 -44 -9 -50 -14 -7 -7 -1 -8 18 -3 16 3 75 10 130
14 101 7 101 7 22 7 -44 0 -98 -2 -120 -4z"/>
<path d="M1025 2538 c-39 -89 -71 -165 -73 -169 -2 -5 11 -9 28 -9 26 0 34 5
43 30 11 28 14 30 68 30 54 0 58 -1 68 -30 8 -26 15 -30 45 -30 20 0 36 2 36
5 0 5 -139 328 -143 332 -2 1 -34 -70 -72 -159z m91 -55 c-2 -3 -15 -3 -28 -1
-24 3 -24 4 -10 38 l14 35 14 -34 c8 -19 12 -36 10 -38z"/>
<path d="M1640 2525 l0 -165 35 0 35 0 0 96 0 96 103 -94 c56 -52 108 -98 115
-102 9 -6 12 29 12 158 l0 166 -35 0 -34 0 -3 -91 -3 -92 -105 97 c-58 53
-108 96 -112 96 -5 0 -8 -74 -8 -165z"/>
<path d="M3144 2671 c-57 -26 -87 -72 -92 -140 -4 -65 19 -109 77 -148 61 -41
165 -24 211 35 52 66 50 150 -7 212 -53 60 -118 73 -189 41z m139 -82 c85 -92
-36 -224 -131 -144 -38 32 -48 72 -28 119 17 41 66 69 106 60 14 -2 37 -18 53
-35z"/>
<path d="M2370 2519 l0 -161 89 4 c72 2 95 7 118 24 72 53 91 129 54 211 -28
60 -77 83 -181 83 l-80 0 0 -161z m185 76 c20 -19 25 -34 25 -73 0 -62 -28
-92 -94 -99 l-46 -6 0 102 0 101 45 0 c35 0 52 -6 70 -25z"/>
<path d="M3800 2521 l0 -161 30 0 c29 0 30 1 30 50 0 46 2 50 24 50 18 0 32
-13 56 -50 28 -44 36 -50 66 -50 19 0 34 2 34 5 0 3 -15 30 -34 59 l-33 52 23
28 c33 38 33 104 0 143 -23 26 -31 28 -110 32 l-86 3 0 -161z m150 73 c16 -40
-3 -64 -50 -64 l-40 0 0 45 0 45 40 0 c34 0 42 -4 50 -26z"/>
<path d="M1030 2118 c1 -21 65 -198 96 -263 147 -314 409 -575 725 -724 223
-105 417 -147 664 -145 170 2 379 36 354 58 -2 2 -44 -5 -94 -16 -70 -16 -130
-21 -270 -21 -209 -2 -323 17 -510 85 -185 67 -157 53 -325 163 -116 76 -209
157 -296 255 -82 93 -200 270 -230 345 -58 145 -76 193 -85 231 -10 40 -29 61
-29 32z"/>
<path d="M1957 2072 c-34 -37 -11 -92 39 -92 33 0 30 18 -3 22 -24 3 -28 8
-28 33 0 25 4 30 28 33 15 2 25 8 22 13 -10 15 -41 10 -58 -9z"/>
<path d="M2120 2070 c-25 -25 -26 -52 -2 -73 24 -22 55 -21 75 1 23 26 21 58
-5 76 -30 21 -44 20 -68 -4z m65 -35 c0 -24 -5 -31 -24 -33 -31 -5 -45 11 -37
43 5 21 12 26 34 23 23 -2 27 -8 27 -33z"/>
<path d="M2491 2033 c0 -34 3 -51 8 -40 3 10 17 23 31 30 13 7 25 17 27 23 5
16 -25 44 -48 44 -17 0 -19 -7 -18 -57z m44 17 c0 -22 -29 -18 -33 3 -3 14 1
18 15 15 10 -2 18 -10 18 -18z"/>
<path d="M2877 2083 c-4 -3 -7 -20 -7 -37 l0 -30 -35 34 -35 34 2 -55 c1 -35
3 -43 5 -21 2 17 7 32 11 32 3 0 21 -14 39 -32 l33 -32 0 57 c0 58 -1 62 -13
50z"/>
<path d="M2970 2085 c0 -2 9 -19 20 -37 11 -18 20 -41 20 -50 0 -27 20 -22 20
5 1 12 7 33 15 47 17 29 18 40 7 40 -5 0 -14 -12 -21 -27 l-13 -28 -14 28
c-13 23 -34 37 -34 22z"/>
<path d="M2290 2033 c0 -29 5 -53 10 -53 6 0 10 12 10 27 l0 27 16 -22 15 -22
19 22 19 23 1 -27 c0 -16 5 -28 10 -28 6 0 10 24 10 53 l-1 52 -28 -33 -28
-33 -26 33 -26 33 -1 -52z"/>
<path d="M2646 2034 c-10 -25 -16 -48 -12 -51 3 -3 8 2 12 11 8 20 40 21 48 1
3 -8 10 -15 15 -15 5 0 1 23 -11 50 -11 28 -23 50 -27 50 -3 0 -14 -21 -25
-46z m34 -4 c0 -5 -4 -10 -10 -10 -5 0 -10 5 -10 10 0 6 5 10 10 10 6 0 10 -4
10 -10z"/>
<path d="M2100 1705 c0 -32 2 -35 28 -34 23 2 24 2 5 6 -27 5 -30 20 -5 26 16
4 16 5 0 6 -26 2 -22 19 5 24 19 4 18 4 -5 6 -26 1 -28 -2 -28 -34z"/>
<path d="M2204 1728 c-4 -6 0 -16 9 -23 22 -16 21 -22 0 -28 -14 -4 -12 -5 5
-6 27 -1 31 33 5 44 -17 7 -16 8 2 15 16 7 17 9 3 9 -9 1 -20 -4 -24 -11z"/>
<path d="M2297 1732 c6 -4 13 -21 16 -37 l4 -30 2 32 c0 17 7 34 14 36 6 3 -1
6 -18 6 -16 0 -25 -3 -18 -7z"/>
<path d="M2390 1705 c0 -34 2 -36 28 -33 23 3 27 8 27 33 0 25 -4 30 -27 33
-26 3 -28 1 -28 -33z m45 0 c0 -10 -6 -20 -12 -22 -8 -3 -13 5 -13 22 0 17 5
25 13 23 6 -3 12 -13 12 -23z"/>
<path d="M2575 1721 c-3 -5 -1 -12 5 -16 5 -3 10 -1 10 4 0 6 4 11 10 11 5 0
6 -7 3 -17 -4 -11 -3 -14 5 -9 19 12 14 36 -7 36 -11 0 -22 -4 -26 -9z"/>
<path d="M2672 1703 c2 -20 8 -28 23 -28 31 0 28 49 -3 53 -20 3 -23 0 -20
-25z m36 0 c-5 -25 -28 -28 -28 -4 0 12 6 21 16 21 9 0 14 -7 12 -17z"/>
<path d="M2770 1713 c0 -15 2 -16 10 -3 5 8 12 11 16 7 4 -4 -1 -16 -11 -27
-18 -19 -17 -20 1 -20 14 0 20 8 21 30 2 24 -2 30 -17 30 -12 0 -20 -7 -20
-17z"/>
<path d="M2882 1718 c-16 -16 -15 -35 3 -42 11 -4 15 2 15 24 0 34 -1 35 -18
18z"/>
<path d="M2585 1680 c-4 -6 3 -10 14 -10 25 0 27 6 6 13 -8 4 -17 2 -20 -3z"/>
</g>
</svg>
