<?xml version="1.0" standalone="no"?>
<!DOCTYPE svg PUBLIC "-//W3C//DTD SVG 20010904//EN"
 "http://www.w3.org/TR/2001/REC-SVG-20010904/DTD/svg10.dtd">
<svg version="1.0" xmlns="http://www.w3.org/2000/svg"
 width="500.000000pt" height="500.000000pt" viewBox="0 0 500.000000 500.000000"
 preserveAspectRatio="xMidYMid meet">

<g transform="translate(0.000000,500.000000) scale(0.100000,-0.100000)"
fill="#000000" stroke="none">
<path d="M2373 3784 l-22 -5 20 -33 19 -33 138 -6 c102 -4 162 -12 235 -31
387 -103 702 -399 822 -771 l23 -70 41 -3 40 -3 -15 53 c-57 194 -155 365
-295 512 -184 193 -391 311 -644 365 -93 21 -314 36 -362 25z"/>
<path d="M2186 3708 c-89 -58 -218 -236 -306 -421 -85 -177 -163 -409 -216
-640 l-18 -79 -93 -79 c-160 -139 -273 -301 -273 -395 0 -128 149 -125 244 5
48 65 86 150 131 296 21 66 44 128 53 137 34 40 330 201 410 223 28 8 29 23
-7 -315 -50 -459 -61 -742 -32 -789 5 -7 17 -11 27 -9 18 3 20 18 25 188 8
213 75 940 88 953 5 5 31 12 57 15 40 4 46 3 41 -11 -3 -9 -11 -43 -17 -76
-15 -81 0 -141 34 -141 30 0 61 36 114 132 60 110 68 113 76 26 13 -139 47
-198 113 -198 27 0 45 10 89 51 l54 52 0 -35 c0 -55 43 -83 90 -58 23 12 47
54 94 165 21 50 41 93 45 97 3 4 6 -111 7 -255 1 -264 6 -312 37 -331 29 -18
38 4 27 63 -13 71 -13 526 1 649 6 53 26 157 45 229 40 156 43 203 14 203 -31
0 -49 -39 -75 -166 -48 -231 -45 -224 -74 -224 -59 0 -116 -57 -170 -170 -38
-79 -127 -200 -160 -216 -51 -26 -69 9 -85 160 -9 85 -15 111 -28 120 -27 17
-46 0 -122 -110 -64 -93 -68 -97 -61 -59 3 22 18 77 32 122 14 46 23 90 19 99
-10 25 -39 12 -61 -29 -20 -36 -21 -37 -78 -37 l-58 0 5 33 c3 17 26 147 50
287 25 140 50 292 57 338 29 207 -24 281 -145 200z m95 -58 c10 -46 5 -86 -42
-325 -21 -110 -48 -258 -59 -330 -11 -71 -22 -140 -25 -152 -4 -15 -19 -26
-61 -39 -60 -19 -247 -111 -329 -162 -27 -17 -51 -29 -53 -27 -6 6 66 267 108
390 55 160 174 398 257 514 69 96 153 174 182 169 8 -2 18 -18 22 -38z m709
-740 c0 -16 -89 -232 -113 -274 -45 -80 -60 -47 -32 72 18 75 44 129 86 177
30 34 59 46 59 25z m-1399 -548 c-63 -191 -151 -312 -228 -312 -20 0 -23 5
-23 38 0 70 53 157 167 271 57 58 105 102 108 99 3 -3 -8 -46 -24 -96z"/>
<path d="M2019 3702 c-163 -67 -281 -144 -410 -270 -285 -276 -422 -670 -368
-1057 16 -119 20 -124 52 -74 27 41 27 42 17 140 -23 231 37 494 160 699 115
192 261 330 465 441 44 24 91 57 105 74 14 16 35 40 47 52 28 29 14 28 -68 -5z"/>
<path d="M3254 2885 c-58 -58 -119 -240 -112 -334 8 -107 67 -134 138 -63 72
72 93 237 41 311 -20 28 -22 36 -11 56 28 52 -13 73 -56 30z m36 -191 c0 -77
-40 -174 -72 -174 -17 0 -7 104 19 182 24 72 28 79 40 62 7 -10 13 -41 13 -70z"/>
<path d="M3439 2868 c-9 -15 -15 -82 -17 -195 -4 -155 -3 -173 13 -179 25 -10
35 7 45 73 4 33 15 74 24 91 29 55 41 62 121 62 81 0 105 6 105 25 0 19 -24
25 -109 25 -63 0 -83 -4 -104 -20 -14 -11 -27 -20 -29 -20 -1 0 -3 35 -3 77 0
65 -3 78 -17 81 -9 2 -22 -7 -29 -20z"/>
<path d="M3640 2534 c0 -296 -106 -567 -307 -784 l-66 -71 27 -27 27 -27 51
55 c227 244 348 548 348 878 l0 102 -40 0 -40 0 0 -126z"/>
<path d="M1425 1948 c-16 -6 -32 -12 -34 -14 -11 -10 151 -225 217 -288 l31
-29 24 29 25 29 -69 72 c-38 40 -90 104 -115 143 -26 38 -47 70 -48 69 -1 0
-14 -5 -31 -11z"/>
<path d="M3184 1652 c-8 -5 -9 -23 -4 -57 4 -27 7 -51 5 -53 -1 -1 -22 9 -46
22 -64 36 -76 22 -34 -41 35 -53 52 -69 62 -60 3 3 -7 21 -21 40 -35 46 -33
51 14 27 21 -11 42 -20 46 -20 4 0 4 23 0 50 -4 28 -5 50 -3 50 3 0 16 -18 31
-40 15 -23 31 -38 37 -35 5 4 -9 33 -32 66 -23 32 -42 59 -43 59 -1 0 -6 -4
-12 -8z"/>
<path d="M1742 1638 c-16 -16 -15 -39 3 -62 35 -46 1 -65 -34 -19 -25 31 -40
23 -22 -11 15 -27 54 -48 76 -40 22 9 28 41 11 66 -9 12 -16 28 -16 35 0 20
27 15 43 -8 11 -15 17 -17 23 -8 4 8 -3 21 -20 36 -30 26 -46 29 -64 11z"/>
<path d="M1972 1452 c-12 -32 -22 -63 -22 -70 0 -22 20 -12 26 13 7 28 20 31
59 13 18 -8 24 -16 19 -27 -10 -25 -10 -36 0 -39 8 -3 56 99 56 120 0 18 -21
6 -30 -17 -11 -29 -8 -28 -49 -14 -33 12 -34 17 -16 62 5 11 3 17 -6 17 -8 0
-24 -26 -37 -58z"/>
<path d="M2836 1448 c-10 -46 -12 -138 -4 -138 5 0 13 11 18 24 11 29 63 44
86 25 8 -6 17 -9 20 -6 9 9 -86 117 -102 117 -8 0 -16 -10 -18 -22z m47 -32
c15 -22 15 -25 1 -30 -28 -11 -34 -6 -34 24 0 36 12 38 33 6z"/>
<path d="M2291 1354 c-7 -37 -9 -69 -6 -72 12 -12 23 16 30 76 9 84 -10 81
-24 -4z"/>
<path d="M2586 1383 l-18 -38 -28 35 c-40 49 -48 31 -11 -24 17 -24 31 -54 31
-65 0 -12 5 -21 10 -21 6 0 10 11 10 25 0 14 9 43 20 65 11 22 20 44 20 50 0
22 -17 8 -34 -27z"/>
</g>
</svg>
